<svg xmlns="http://www.w3.org/2000/svg" xmlns:xlink="http://www.w3.org/1999/xlink" version="1.1" width="482.428" height="482.429" style="" xml:space="preserve"><rect id="backgroundrect" width="100%" height="100%" x="0" y="0" fill="none" stroke="none"/>
















<g class="currentLayer" style=""><title>Layer 1</title><g id="svg_1" class="selected" fill="#ffffff" fill-opacity="1">
	<g id="svg_2" fill="#ffffff" fill-opacity="1">
		<path d="M380.6043407444954,57.799 h-75.094 C301.76434074449537,25.316 274.12734074449537,0 240.6553407444954,0 c-33.471,0 -61.104,25.315 -64.85,57.799 h-75.098 c-30.39,0 -55.111,24.728 -55.111,55.117 v2.8280000000000003 c0,23.223 14.46,43.1 34.83,51.199 v260.369 c0,30.39 24.724,55.117 55.112,55.117 h210.236 c30.389,0 55.111,-24.729 55.111,-55.117 V166.944 c20.369,-8.1 34.83,-27.977 34.83,-51.199 v-2.8280000000000003 C435.7153407444954,82.527 410.9923407444954,57.799 380.6043407444954,57.799 zM240.6553407444954,26.139 c19.037,0 34.927,13.645 38.443,31.66 h-76.879 C205.7343407444954,39.783 221.6253407444954,26.139 240.6553407444954,26.139 zM374.7463407444954,427.312 c0,15.978 -13,28.979 -28.973,28.979 H135.5373407444954 c-15.973,0 -28.973,-13.002 -28.973,-28.979 V170.861 h268.182 V427.312 zM409.5763407444954,115.744 c0,15.978 -13,28.979 -28.973,28.979 H100.7073407444954 c-15.973,0 -28.973,-13.001 -28.973,-28.979 v-2.8280000000000003 c0,-15.978 13,-28.979 28.973,-28.979 h279.897 c15.973,0 28.973,13.001 28.973,28.979 V115.744 z" id="svg_3" fill="#ffffff" fill-opacity="1"/>
		<path d="M170.5853407444954,422.863 c7.218,0 13.069,-5.853 13.069,-13.068 V262.641 c0,-7.216 -5.852,-13.07 -13.069,-13.07 c-7.217,0 -13.069,5.854 -13.069,13.07 v147.154 C157.5153407444954,417.012 163.36734074449538,422.863 170.5853407444954,422.863 z" id="svg_4" fill="#ffffff" fill-opacity="1"/>
		<path d="M240.6553407444954,422.863 c7.218,0 13.07,-5.853 13.07,-13.068 V262.641 c0,-7.216 -5.854,-13.07 -13.07,-13.07 c-7.217,0 -13.069,5.854 -13.069,13.07 v147.154 C227.5863407444954,417.012 233.4373407444954,422.863 240.6553407444954,422.863 z" id="svg_5" fill="#ffffff" fill-opacity="1"/>
		<path d="M310.7253407444954,422.863 c7.217,0 13.068,-5.853 13.068,-13.068 V262.641 c0,-7.216 -5.852,-13.07 -13.068,-13.07 c-7.219,0 -13.07,5.854 -13.07,13.07 v147.154 C297.6543407444954,417.012 303.5083407444954,422.863 310.7253407444954,422.863 z" id="svg_6" fill="#ffffff" fill-opacity="1"/>
	</g>
</g><g id="svg_7">
</g><g id="svg_8">
</g><g id="svg_9">
</g><g id="svg_10">
</g><g id="svg_11">
</g><g id="svg_12">
</g><g id="svg_13">
</g><g id="svg_14">
</g><g id="svg_15">
</g><g id="svg_16">
</g><g id="svg_17">
</g><g id="svg_18">
</g><g id="svg_19">
</g><g id="svg_20">
</g><g id="svg_21">
</g></g></svg>